<?xml version="1.0" encoding="utf-8"?>
<!-- Generator: Adobe Illustrator 24.0.1, SVG Export Plug-In . SVG Version: 6.00 Build 0)  -->
<svg version="1.1" id="Слой_1" xmlns="http://www.w3.org/2000/svg" xmlns:xlink="http://www.w3.org/1999/xlink" x="0px" y="0px"
	 viewBox="0 0 247 45" style="enable-background:new 0 0 247 45;" xml:space="preserve">
<style type="text/css">
	.st0{clip-path:url(#SVGID_2_);}
	.st1{fill-rule:evenodd;clip-rule:evenodd;fill:#607EF8;}
	.st2{fill:#607EF8;}
</style>
<g>
	<defs>
		<rect id="SVGID_1_" y="0" width="246.7" height="63"/>
	</defs>
	<clipPath id="SVGID_2_">
		<use xlink:href="#SVGID_1_"  style="overflow:visible;"/>
	</clipPath>
	<g class="st0">
		<path class="st1" d="M73.3,25h14.1c-1.7,4.5-5.6,7.5-10.5,7.5c-6.3,0-11.3-5.5-11.3-11.6c0-6.2,4.8-11.8,11.2-11.8
			c3.5,0,6,1.6,8.3,4.1h5.2c-2.7-5-7.9-8.2-13.6-8.2C68,5.2,61.3,12.3,61.3,21c0,8.6,6.8,15.7,15.5,15.7c2.3,0,4.5-0.5,6.6-1.5
			c5.7-2.6,9-8,9.1-14.2H73.3V25z M107.6,12.7c-6.6,0-12.3,5.1-12.3,11.8c0,6.7,5.6,12.1,12.3,12.1c6.9,0,12.3-5.5,12.3-12
			C119.9,17.9,114.3,12.7,107.6,12.7L107.6,12.7z M107.6,32.7c-4.4,0-8-3.6-8-8.1c0-4.4,3.6-8,8-8c1.1,0,2.1,0.2,3.1,0.6
			c1,0.4,1.9,1,2.6,1.7c0.7,0.7,1.3,1.6,1.7,2.6c0.4,1,0.6,2,0.6,3.1C115.6,29.1,112.1,32.7,107.6,32.7L107.6,32.7z M134,5.7h-9.8
			v30.3h9.7c4.6,0,8.5-1.1,11.8-4.4c2.5-2.5,3.8-7.2,3.8-10.7c0-3.5-1.1-6.8-3.1-9.7C143.4,7.2,138.9,5.7,134,5.7z M133.9,32h-5.3
			V9.8h5.4c4.7,0,8.4,2.2,10.2,6.6c0.6,1.5,0.9,3,0.9,4.6C145,28,140.7,32,133.9,32L133.9,32z M154.2,36.1h4.3V13.4h-4.3V36.1z
			 M154.2,10.7h4.3v-5h-4.3V10.7z M182.8,16c-1.9-2.1-5-3.2-7.8-3.2c-4.8,0-8.9,2.5-11,6.8c-0.8,1.6-1.2,3.3-1.2,5.1
			c0,6.6,5.6,12,12.1,12c3,0,6-1.1,7.8-3.6h0.1c0,5.2-2.8,8-8,8c-2.7,0-4.9-1.1-6.5-3.3h-4.8c2,4.6,6.2,7.2,11.2,7.2
			c7.5,0,12.3-4.3,12.3-12V13.4h-4.3L182.8,16z M182.1,27.9c-1.3,3-3.9,4.8-7.2,4.8c-4.3,0-7.8-3.7-7.8-8c0-4.4,3.4-8.1,7.9-8.1
			c1,0,2,0.2,3,0.6c3.3,1.3,4.9,4,4.9,7.5C182.8,25.8,182.5,26.9,182.1,27.9L182.1,27.9z M192.5,10.7h4.3v-5h-4.3V10.7z M192.5,36.1
			h4.3V13.4h-4.3V36.1z M207.3,5.7H203v7.6h-3.1v3.9h3.1v18.8h4.3V17.3h3.7v-3.9h-3.7L207.3,5.7z M232.5,16.6L232.5,16.6
			c-1.8-2.6-4.8-3.8-7.8-3.8c-6.9,0-12,5.2-12,12c0,6.8,5.2,11.8,12,11.8c3.1,0,6.1-1.4,7.7-4.1h0.1v3.5h4.3V13.4h-4.3V16.6z
			 M224.7,32.7c-4.3,0-7.7-3.7-7.7-8c0-4.4,3.3-8.1,7.8-8.1c4.6,0,7.9,3.6,7.9,8.1C232.6,29.1,229.1,32.7,224.7,32.7L224.7,32.7z
			 M242.5,5.7v30.3h4.3V5.7H242.5z"/>
		<path class="st2" d="M17.7,0c3.8,0,7.6,0,11.4,0c9.3,0.1,17.4,6,20.4,14.6c0.6,1.6,0.9,3.2,1.1,4.9c0.5,4.2-0.3,8.5-2.2,12.2
			c-0.3,0.6-0.7,1-1.3,1.1c-0.3,0.1-0.7,0-1-0.1c-0.3-0.1-0.6-0.3-0.8-0.6c-0.4-0.6-0.5-1.2-0.2-1.9c0.3-0.6,0.6-1.2,0.8-1.9
			c0.6-1.6,1-3.2,1.1-4.9c0.3-4-0.5-7.7-2.5-11.1c-2.6-4.3-6.3-7-11.1-8.3c-1.5-0.4-3.1-0.6-4.6-0.6c-7.6,0-15.2,0-22.8,0
			c-0.8,0-1.5,0.3-1.9,1C3.8,4.9,3.6,5.2,3.6,5.6c0,0.4,0,0.8,0.2,1.1C4,7.1,4.2,7.4,4.5,7.6C4.8,7.8,5.2,8,5.6,8c0.2,0,0.3,0,0.5,0
			c7.5,0,15.1,0,22.6,0c1.2,0,2.4,0.1,3.6,0.4c0.4,0.1,0.8,0.4,1.1,0.8c0.2,0.4,0.3,0.8,0.3,1.3c-0.1,0.4-0.3,0.8-0.7,1.1
			c-0.4,0.3-0.8,0.4-1.3,0.3c-0.3,0-0.6-0.1-0.9-0.2c-0.7-0.1-1.4-0.2-2.1-0.2c-7.6,0-15.1,0-22.7,0c-1.1,0-2.1-0.2-3-0.8
			C0.9,9.6-0.1,7.7,0,5.3c0.2-2.6,2.2-4.7,4.7-5.2C5.2,0,5.6,0,6,0C9.9,0,13.8,0,17.7,0L17.7,0z"/>
		<path class="st2" d="M18,43.7c-4.1,0-8.1,0-12.2,0c-2.3,0-4.1-1.1-5.2-3.2c-1.8-3.4,0.4-7.6,4.2-8.3c0.4-0.1,0.8-0.1,1.2-0.1
			c7.6,0,15.2,0,22.8,0c2.1,0,4-0.5,5.7-1.7c2.4-1.6,4-3.9,4.5-6.8c0.5-2.6,0-5.1-1.4-7.3c-0.1-0.1-0.2-0.3-0.2-0.4
			c-0.2-0.4-0.3-0.8-0.2-1.2c0.1-0.4,0.3-0.8,0.6-1c0.3-0.3,0.7-0.4,1.1-0.4c0.4,0,0.8,0.1,1.1,0.4c0.1,0.1,0.2,0.2,0.3,0.4
			c1.1,1.6,1.8,3.4,2.2,5.3c0.3,1.9,0.3,3.9-0.2,5.7c-0.5,1.9-1.3,3.6-2.5,5.2c-1.2,1.5-2.7,2.8-4.4,3.7c-1.5,0.8-3.2,1.4-5,1.6
			c-0.6,0.1-1.2,0.1-1.7,0.1c-7.6,0-15.1,0-22.7,0c-0.2,0-0.5,0-0.7,0.1c-0.5,0.1-1,0.5-1.3,0.9c-0.3,0.4-0.4,1-0.4,1.5
			c0.1,0.5,0.3,1,0.7,1.4c0.4,0.4,0.9,0.6,1.5,0.6H6c7.6,0,15.1,0,22.6,0c4.1,0,7.9-1.2,11.2-3.7c0.3-0.2,0.6-0.5,1-0.5
			c0.4-0.1,0.8,0,1.1,0.2c0.4,0.2,0.6,0.5,0.8,0.8c0.2,0.4,0.2,0.8,0.1,1.2c-0.1,0.4-0.3,0.7-0.6,1c-3.1,2.4-6.7,4-10.6,4.5
			c-1,0.1-2,0.2-3,0.2C25.2,43.7,21.6,43.7,18,43.7z"/>
		<path class="st2" d="M19.1,16.1c3.2,0,6.4,0,9.7,0c1.3,0,2.6,0.4,3.6,1.2c1.6,1.2,2.4,2.8,2.3,4.8c0,1.4-0.5,2.7-1.4,3.7
			c-0.9,1-2.1,1.7-3.5,1.9c-0.3,0-0.6,0.1-0.9,0.1c-1.2,0-2.4,0-3.6,0c-0.5,0-0.9-0.2-1.3-0.5c-0.3-0.3-0.5-0.8-0.5-1.3
			c0-0.5,0.2-0.9,0.5-1.3c0.3-0.3,0.8-0.5,1.3-0.5c1.2,0,2.4,0,3.5,0c0.3,0,0.5,0,0.8-0.1c0.5-0.2,0.9-0.5,1.2-0.9
			c0.3-0.4,0.4-0.9,0.4-1.4c0-0.5-0.2-1-0.6-1.3c-0.3-0.4-0.8-0.6-1.3-0.7c-0.2,0-0.4,0-0.6,0c-6.5,0-13,0-19.5,0
			c-0.2,0-0.4,0-0.6,0c-0.4-0.1-0.8-0.3-1.1-0.7S7,18.2,7.1,17.8s0.2-0.8,0.5-1.1c0.3-0.3,0.7-0.5,1.1-0.5c0.1,0,0.2,0,0.4,0
			L19.1,16.1z"/>
		<path class="st2" d="M12.7,27.7c-1.3,0-2.6,0-3.8,0c-0.5,0-0.9-0.2-1.2-0.5c-0.3-0.3-0.5-0.8-0.5-1.3c0-0.5,0.2-0.9,0.5-1.3
			c0.3-0.3,0.8-0.5,1.2-0.5c0.5,0,1,0,1.5,0c2.1,0,4.1,0,6.2,0c0.2,0,0.5,0,0.7,0.1c0.2,0.1,0.4,0.2,0.6,0.4
			c0.2,0.2,0.3,0.4,0.4,0.6c0.1,0.2,0.1,0.4,0.2,0.7c0,0.2,0,0.5-0.1,0.7c-0.1,0.2-0.2,0.4-0.4,0.6c-0.2,0.2-0.4,0.3-0.6,0.4
			c-0.2,0.1-0.4,0.1-0.7,0.2C15.3,27.7,14,27.7,12.7,27.7z"/>
	</g>
</g>
</svg>
